<svg xmlns="http://www.w3.org/2000/svg" height="1200" width="1600" version="1.1" xmlns:xlink="http://www.w3.org/1999/xlink" xmlns:svgjs="http://svgjs.com/svgjs"><rect fill="#effaff" width="1600" height="1200"></rect><g><path d="M1157.42 212.51C1078.03 153.29 972.16 146.04 870.95 146.62 773.18 147.2 674.74 158.38 579.73 179.56 513.4 194.33 440.88 212.68 392.95 258.05 344.34 303.75 316.99 364.8 309.75 426.36 301.65 494 316.42 562.72 342.72 626.53 366.07 683.07 399.62 737.95 448.89 780.66 513.5 836.87 594.4 852.97 681.89 858.56 774.99 864.4 871.43 863.64 959.58 833.45 1079.85 792.42 1154.94 702.92 1209.45 604.26 1243.28 542.87 1264.05 474.9 1259.96 406.84 1255.86 338.87 1226.13 270.72 1170.47 222.93 1166.18 219.43 1161.71 215.93 1157.42 212.51Z" fill="#deeff7" opacity="1" stroke-width="2" stroke="none"></path></g><g><path d="M892.38 1061.73H1314.73 1321.26C1347.05 1061.73 1368.07 1040.8 1368.07 1014.91 1368.07 989.12 1347.05 968.1 1321.26 968.1H1289.77" stroke="#333333" stroke-width="2" stroke-linecap="round" stroke-linejoin="round" opacity="1" fill="none"></path><path d="M421.66 1061.73H881.3" stroke="#333333" stroke-width="2" stroke-linecap="round" stroke-linejoin="round" opacity="1" fill="none"></path><path d="M231.93 1061.73H408.3" stroke="#333333" stroke-width="2" stroke-linecap="round" stroke-linejoin="round" opacity="1" fill="none"></path><path d="M1273.72 968.31H1196.87" stroke="#333333" stroke-width="2" stroke-linecap="round" stroke-linejoin="round" opacity="1" fill="none"></path><path d="M1191.28 968.31H1178.85" stroke="#333333" stroke-width="2" stroke-linecap="round" stroke-linejoin="round" opacity="1" fill="none"></path></g><g><path d="M236.92 212.38L229.91 205.67 261.99 200.89 276.32 172.09 290.64 200.89 322.43 205.67 299.3 228.2 304.67 259.98 276.32 245.06 247.67 259.98 253.19 228.2 250.35 225.36 248.26 223.57 240.65 215.96" fill="#78c7e0" opacity="1" stroke-width="2" stroke="none"></path><path d="M236.92 212.38L229.91 205.67 261.99 200.89 276.32 172.09 290.64 200.89 322.43 205.67 299.3 228.2 304.67 259.98 276.32 245.06 247.67 259.98 253.19 228.2 250.35 225.36 248.26 223.57 240.65 215.96" stroke="#333333" stroke-width="2" stroke-linecap="round" stroke-linejoin="round" opacity="1" fill="none"></path></g><g><path d="M469.1 714.33C514.72 714.33 551.71 677.34 551.71 631.72 551.71 586.11 514.72 549.12 469.1 549.12 423.49 549.12 386.5 586.11 386.5 631.72 386.5 677.34 423.49 714.33 469.1 714.33Z" fill="#48466d" stroke="#333333" stroke-width="2" stroke-linecap="round" stroke-linejoin="round" opacity="1"></path><path d="M469.1 967.41V634.35" stroke="#333333" stroke-width="2" stroke-linecap="round" stroke-linejoin="round" opacity="1" fill="none"></path><path d="M499.36 643.04L469.1 673.03 438.85 643.04" stroke="#333333" stroke-width="2" stroke-linecap="round" stroke-linejoin="round" opacity="1" fill="none"></path><path d="M373.61 875.34C400.04 875.34 421.49 853.9 421.49 827.46 421.49 801.02 400.04 779.58 373.61 779.58 347.17 779.58 325.72 801.02 325.72 827.46 325.72 853.9 347.17 875.34 373.61 875.34Z" fill="#3d84a8" stroke="#333333" stroke-width="2" stroke-linecap="round" stroke-linejoin="round" opacity="1"></path><path d="M373.61 967.41V827.46" stroke="#333333" stroke-width="2" stroke-linecap="round" stroke-linejoin="round" opacity="1" fill="none"></path></g><g><path d="M479.05 280.84H466.47 404.69C396.19 280.84 389.14 287.72 389.14 296.39 389.14 305.06 396.02 311.94 404.69 311.94H322.51C309.34 311.94 298.46 322.65 298.46 335.99 298.46 349.17 309.17 360.04 322.51 360.04H466.56 491.88 495.37C517.21 360.04 534.8 342.28 534.8 320.61 534.8 298.77 517.04 281.18 495.37 281.18H491.88" fill="#3d84a8" opacity="1" stroke-width="2" stroke="none"></path><path d="M479.05 280.84H466.47 404.69C396.19 280.84 389.14 287.72 389.14 296.39 389.14 305.06 396.02 311.94 404.69 311.94H322.51C309.34 311.94 298.46 322.65 298.46 335.99 298.46 349.17 309.17 360.04 322.51 360.04H466.56 491.88 495.37C517.21 360.04 534.8 342.28 534.8 320.61 534.8 298.77 517.04 281.18 495.37 281.18H491.88" stroke="#333333" stroke-width="2" stroke-linecap="round" stroke-linejoin="round" opacity="1" fill="none"></path><path d="M509.73 381.63H490.35C478.37 381.63 468.51 371.77 468.51 359.79" stroke="#333333" stroke-width="2" stroke-linecap="round" stroke-linejoin="round" opacity="1" fill="none"></path><path d="M547.46 381.63H520.27" stroke="#333333" stroke-width="2" stroke-linecap="round" stroke-linejoin="round" opacity="1" fill="none"></path><path d="M404.69 311.94H423.13" stroke="#333333" stroke-width="2" stroke-linecap="round" stroke-linejoin="round" opacity="1" fill="none"></path><path d="M431.89 311.94H437.75" stroke="#333333" stroke-width="2" stroke-linecap="round" stroke-linejoin="round" opacity="1" fill="none"></path></g><g><path d="M1003.36 656.51L1056.55 715.54 1003.36 719.07 999.69 715.54 998.79 656.51H1003.36Z" fill="#46cdcf" stroke="#333333" stroke-width="2" stroke-linecap="round" stroke-linejoin="round" opacity="1"></path><path d="M1056.55 715.54H1003.36 999.69V742.02L1003.36 740.22 1056.55 715.54Z" fill="#78c7e0" stroke="#333333" stroke-width="2" stroke-linecap="round" stroke-linejoin="round" opacity="1"></path><path d="M596.64 656.51L543.45 715.54 596.64 719.07 602.34 715.54V656.51H596.64Z" fill="#46cdcf" stroke="#333333" stroke-width="2" stroke-linecap="round" stroke-linejoin="round" opacity="1"></path><path d="M543.45 715.54H596.64 602.34V743.15L596.64 740.22 543.45 715.54Z" fill="#78c7e0" stroke="#333333" stroke-width="2" stroke-linecap="round" stroke-linejoin="round" opacity="1"></path><path d="M746.37 810.28L596.64 740.37V685.01 378.51H1003.44V424.86 458.55 684.86 740.22L882.59 796.71 853.48 810.28 830.31 792.28C812.45 778.33 787.47 778.33 769.39 792.28L746.37 810.28Z" fill="#abedd8" stroke="#333333" stroke-width="2" stroke-linecap="round" stroke-linejoin="round" opacity="1"></path><path d="M659.73 473.1H940.12" stroke="#333333" stroke-width="2" stroke-linecap="round" stroke-linejoin="round" opacity="1" fill="none"></path><path d="M754.09 526.81H940.12" stroke="#333333" stroke-width="2" stroke-linecap="round" stroke-linejoin="round" opacity="1" fill="none"></path><path d="M659.73 526.81H724.09" stroke="#333333" stroke-width="2" stroke-linecap="round" stroke-linejoin="round" opacity="1" fill="none"></path><path d="M659.73 580.52H940.12" stroke="#333333" stroke-width="2" stroke-linecap="round" stroke-linejoin="round" opacity="1" fill="none"></path><path d="M869.09 634.23H940.12" stroke="#333333" stroke-width="2" stroke-linecap="round" stroke-linejoin="round" opacity="1" fill="none"></path><path d="M659.73 634.23H843.36" stroke="#333333" stroke-width="2" stroke-linecap="round" stroke-linejoin="round" opacity="1" fill="none"></path><path d="M659.73 687.94H940.12" stroke="#333333" stroke-width="2" stroke-linecap="round" stroke-linejoin="round" opacity="1" fill="none"></path><path d="M543.45 968.34V715.54L746.37 810.28 756.27 813.58 565.51 968.34H543.45Z" fill="#46cdcf" stroke="#333333" stroke-width="2" stroke-linecap="round" stroke-linejoin="round" opacity="1"></path><path d="M1056.55 840.66V715.54L853.63 810.28 843.36 814.71 1039.59 968.34H1056.55V893.85" fill="#46cdcf" opacity="1" stroke-width="2" stroke="none"></path><path d="M1056.55 840.66V715.54L853.63 810.28 843.36 814.71 1039.59 968.34H1056.55V893.85" stroke="#333333" stroke-width="2" stroke-linecap="round" stroke-linejoin="round" opacity="1" fill="none"></path><path d="M1056.55 880.05V857.02" stroke="#333333" stroke-width="2" stroke-linecap="round" stroke-linejoin="round" opacity="1" fill="none"></path><path d="M638.2 894.52L543.45 968.26H1056.55L830.46 792.28C812.6 778.33 787.62 778.33 769.54 792.28L655.82 880.95" fill="#46cdcf" opacity="1" stroke-width="2" stroke="none"></path><path d="M638.2 894.52L543.45 968.26H1056.55L830.46 792.28C812.6 778.33 787.62 778.33 769.54 792.28L655.82 880.95" stroke="#333333" stroke-width="2" stroke-linecap="round" stroke-linejoin="round" opacity="1" fill="none"></path></g><g><path d="M1247.8 760.93C1263.95 760.93 1277.01 747.87 1277.01 731.72V650.49C1277.01 634.35 1263.95 621.28 1247.8 621.28 1231.65 621.28 1218.58 634.35 1218.58 650.49V731.72C1218.82 747.87 1231.88 760.93 1247.8 760.93Z" fill="#48466d" stroke="#333333" stroke-width="2" stroke-linecap="round" stroke-linejoin="round" opacity="1"></path><path d="M1247.8 791.33V691.34" stroke="#333333" stroke-width="2" stroke-linecap="round" stroke-linejoin="round" opacity="1" fill="none"></path><path d="M1247.8 968.5V791.33" stroke="#333333" stroke-width="2" stroke-linecap="round" stroke-linejoin="round" opacity="1" fill="none"></path><path d="M1235.21 706.54L1247.8 719.13 1260.62 706.54" stroke="#333333" stroke-width="2" stroke-linecap="round" stroke-linejoin="round" opacity="1" fill="none"></path><path d="M1159.45 710.82C1168.47 705.83 1174.65 696.33 1174.65 685.17V603.95C1174.65 587.8 1161.59 574.73 1145.44 574.73 1129.29 574.73 1116.23 587.8 1116.23 603.95V685.17C1116.23 701.32 1129.29 714.38 1145.44 714.38" fill="#3d84a8" opacity="1" stroke-width="2" stroke="none"></path><path d="M1159.45 710.82C1168.47 705.83 1174.65 696.33 1174.65 685.17V603.95C1174.65 587.8 1161.59 574.73 1145.44 574.73 1129.29 574.73 1116.23 587.8 1116.23 603.95V685.17C1116.23 701.32 1129.29 714.38 1145.44 714.38" stroke="#333333" stroke-width="2" stroke-linecap="round" stroke-linejoin="round" opacity="1" fill="none"></path><path d="M1145.67 744.78V644.79" stroke="#333333" stroke-width="2" stroke-linecap="round" stroke-linejoin="round" opacity="1" fill="none"></path><path d="M1145.67 968.5V744.78" stroke="#333333" stroke-width="2" stroke-linecap="round" stroke-linejoin="round" opacity="1" fill="none"></path><path d="M1132.85 659.76L1145.67 672.58 1158.5 659.76" stroke="#333333" stroke-width="2" stroke-linecap="round" stroke-linejoin="round" opacity="1" fill="none"></path></g><g><path d="M1138.9 502.06C1171.95 502.06 1198.73 475.28 1198.73 442.23 1198.73 409.19 1171.95 382.41 1138.9 382.41 1105.86 382.41 1079.08 409.19 1079.08 442.23 1079.08 475.28 1105.86 502.06 1138.9 502.06Z" fill="#abedd8" stroke="#333333" stroke-width="2" stroke-linecap="round" stroke-linejoin="round" opacity="1"></path><path d="M1112.52 441.82L1130.6 459.89 1165.49 424.79" stroke="#333333" stroke-width="2" stroke-linecap="round" stroke-linejoin="round" opacity="1" fill="none"></path></g></svg>